<svg xmlns="http://www.w3.org/2000/svg" width="398" height="64" viewBox="0 0 398.4 63.7"><style>.a{fill:#80DCA9;}</style><path d="M35.4 10.5c-0.1 0.1-0.3 0.2-0.4 0.2 -0.2 0-0.6-0.3-1-0.8 -0.5-0.5-1.1-1.1-2-1.7 -0.9-0.6-2-1.1-3.4-1.7 -1.4-0.5-3.1-0.8-5.2-0.8 -2.1 0-4 0.3-5.7 1s-3 1.5-4.2 2.6c-1.1 1.1-2 2.4-2.6 3.8 -0.6 1.4-0.9 2.9-0.9 4.5 0 2 0.4 3.7 1.2 5 0.8 1.3 1.8 2.5 3.1 3.4 1.3 0.9 2.7 1.7 4.4 2.3 1.6 0.6 3.3 1.2 5 1.8 1.7 0.6 3.4 1.1 5 1.8s3.1 1.4 4.4 2.4c1.3 1 2.3 2.1 3.1 3.5s1.2 3.2 1.2 5.3c0 2.1-0.4 4.1-1.1 6 -0.7 1.9-1.8 3.5-3.1 4.8 -1.4 1.4-3 2.5-5 3.3 -2 0.8-4.3 1.2-6.8 1.2 -1.8 0-3.3-0.2-4.7-0.5 -1.4-0.3-2.7-0.8-3.8-1.3 -1.2-0.6-2.2-1.3-3.2-2.1 -1-0.8-1.9-1.8-2.8-2.9l0.1-0.1c0.1-0.1 0.1-0.1 0.2-0.2s0.1-0.1 0.3-0.1c0.1 0 0.4 0.2 0.7 0.5 0.3 0.3 0.7 0.7 1.2 1.2 0.5 0.5 1.1 1 1.8 1.5 0.7 0.5 1.5 1.1 2.5 1.5 1 0.5 2.1 0.9 3.4 1.2 1.3 0.3 2.7 0.5 4.4 0.5 2.4 0 4.6-0.4 6.4-1.2 1.9-0.8 3.5-1.8 4.8-3.1 1.3-1.3 2.3-2.8 3-4.6 0.7-1.7 1-3.6 1-5.6 0-1.6-0.3-3.1-0.8-4.3s-1.2-2.2-2.1-3.1c-0.9-0.9-1.9-1.6-3-2.2 -1.2-0.6-2.4-1.2-3.7-1.6 -1.3-0.5-2.7-0.9-4-1.3 -1.4-0.4-2.7-0.9-4-1.4 -1.3-0.5-2.6-1.1-3.7-1.7 -1.2-0.6-2.2-1.4-3-2.3 -0.9-0.9-1.6-2-2.1-3.2 -0.5-1.3-0.8-2.7-0.8-4.5 0-1.7 0.3-3.3 0.9-4.8 0.6-1.5 1.5-2.9 2.7-4 1.2-1.2 2.7-2.1 4.4-2.8 1.8-0.7 3.8-1 6-1 2.5 0 4.8 0.4 6.7 1.2 2 0.8 3.8 2.1 5.5 3.9L35.4 10.5z" class="a"/><path d="M82.8 5.7v0.8H63.2v51.4h-0.9V6.5H42.5v-0.8H82.8z" class="a"/><path d="M82.4 57.5c-0.1 0.2-0.2 0.4-0.5 0.4h-0.6l21.8-52.2h0.7l21.8 52.2h-0.7c-0.2 0-0.4-0.1-0.4-0.4L104 8.5c-0.1-0.3-0.2-0.5-0.3-0.8 -0.1-0.2-0.2-0.5-0.3-0.8 -0.1 0.3-0.2 0.5-0.3 0.8 -0.1 0.2-0.2 0.5-0.3 0.8L82.4 57.5z" class="a"/><path d="M147.6 32h0.6c2.6 0 4.9-0.3 6.9-0.9 2.1-0.6 3.8-1.5 5.3-2.6 1.5-1.1 2.6-2.5 3.4-4.1 0.8-1.6 1.2-3.5 1.2-5.5 0-4.3-1.4-7.4-4.1-9.3 -2.8-2-6.7-3-11.9-3h-11.2v25.5 0.7 25.2h-0.9V5.7h12.1c5.4 0 9.6 1.1 12.5 3.2 2.9 2.1 4.4 5.4 4.4 9.9 0 2.1-0.4 4-1.2 5.7 -0.8 1.7-2 3.2-3.5 4.3s-3.3 2.1-5.4 2.8c-2.1 0.7-4.4 1-6.9 1.1 0.2 0.1 0.5 0.2 0.7 0.4 0.2 0.2 0.4 0.4 0.6 0.6l20.4 24.2h-0.6c-0.2 0-0.4 0-0.5-0.1 -0.1 0-0.3-0.2-0.5-0.4l-19.5-23.4C149.1 33.8 147.6 32 147.6 32" class="a"/><path d="M205.5 10.5c-0.1 0.1-0.3 0.2-0.4 0.2 -0.2 0-0.6-0.3-1-0.8 -0.5-0.5-1.1-1.1-2-1.7 -0.9-0.6-2-1.1-3.4-1.7 -1.4-0.5-3.1-0.8-5.2-0.8 -2.1 0-4 0.3-5.7 1 -1.7 0.7-3 1.5-4.2 2.6 -1.1 1.1-2 2.4-2.6 3.8 -0.6 1.4-0.9 2.9-0.9 4.5 0 2 0.4 3.7 1.2 5 0.8 1.3 1.8 2.5 3.1 3.4 1.3 0.9 2.7 1.7 4.4 2.3 1.6 0.6 3.3 1.2 5 1.8 1.7 0.6 3.4 1.1 5 1.8 1.6 0.6 3.1 1.4 4.4 2.4 1.3 1 2.3 2.1 3.1 3.5 0.8 1.4 1.2 3.2 1.2 5.3 0 2.1-0.4 4.1-1.1 6s-1.8 3.5-3.1 4.8c-1.4 1.4-3 2.5-5 3.3 -2 0.8-4.3 1.2-6.8 1.2 -1.8 0-3.3-0.2-4.7-0.5 -1.4-0.3-2.7-0.8-3.8-1.3 -1.2-0.6-2.2-1.3-3.2-2.1 -1-0.8-1.9-1.8-2.8-2.9l0.1-0.1c0.1-0.1 0.1-0.1 0.2-0.2 0 0 0.1-0.1 0.3-0.1 0.1 0 0.4 0.2 0.7 0.5 0.3 0.3 0.7 0.7 1.2 1.2 0.5 0.5 1.1 1 1.8 1.5 0.7 0.5 1.5 1.1 2.5 1.5 1 0.5 2.1 0.9 3.4 1.2 1.3 0.3 2.7 0.5 4.4 0.5 2.4 0 4.6-0.4 6.4-1.2 1.9-0.8 3.5-1.8 4.8-3.1 1.3-1.3 2.3-2.8 3-4.6 0.7-1.7 1-3.6 1-5.6 0-1.6-0.3-3.1-0.8-4.3 -0.5-1.2-1.2-2.2-2.1-3.1 -0.9-0.9-1.9-1.6-3-2.2 -1.2-0.6-2.4-1.2-3.7-1.6 -1.3-0.5-2.7-0.9-4-1.3 -1.4-0.4-2.7-0.9-4-1.4s-2.6-1.1-3.7-1.7 -2.2-1.4-3-2.3c-0.9-0.9-1.6-2-2.1-3.2 -0.5-1.3-0.8-2.7-0.8-4.5 0-1.7 0.3-3.3 0.9-4.8 0.6-1.5 1.5-2.9 2.7-4 1.2-1.2 2.7-2.1 4.4-2.8 1.8-0.7 3.8-1 6-1 2.5 0 4.8 0.4 6.7 1.2 2 0.8 3.8 2.1 5.5 3.9L205.5 10.5z" class="a"/><path d="M252.8 5.7v0.8h-19.6v51.4h-0.9V6.5h-19.8v-0.8H252.8z" class="a"/><path d="M281.8 57.8c2.8 0 5.3-0.5 7.6-1.5 2.2-1 4.1-2.4 5.7-4.1 1.5-1.7 2.7-3.8 3.5-6.1 0.8-2.3 1.2-4.8 1.2-7.5V5.7h0.9v32.8c0 2.8-0.4 5.4-1.3 7.8 -0.9 2.4-2.1 4.6-3.8 6.4 -1.6 1.8-3.6 3.3-5.9 4.3 -2.3 1.1-4.9 1.6-7.9 1.6 -2.9 0-5.5-0.5-7.8-1.6s-4.3-2.5-5.9-4.3 -2.9-3.9-3.8-6.4c-0.9-2.4-1.3-5-1.3-7.8V5.7h0.9v32.7c0 2.7 0.4 5.2 1.2 7.5 0.8 2.3 2 4.4 3.5 6.2 1.5 1.8 3.4 3.1 5.7 4.1C276.4 57.3 279 57.8 281.8 57.8z" class="a"/><path d="M348.7 5.7v0.8H319.1v25.2h25.9v0.8H319.1v25.4h-0.9V5.7H348.7z" class="a"/><path d="M391.7 5.7v0.8h-29.6v25.2h25.9v0.8h-25.9v25.4h-0.9V5.7H391.7z" class="a"/></svg>